<svg preserveAspectRatio="none" width="100%" height="100%" overflow="visible" style="display: block;" viewBox="0 0 58.6667 42.6667" fill="none" xmlns="http://www.w3.org/2000/svg">
<g id="Container">
<path id="Icon" d="M14.6667 42.6667C10.6222 42.6667 7.16667 41.2667 4.3 38.4667C1.43333 35.6667 0 32.2444 0 28.2C0 24.7333 1.04444 21.6444 3.13333 18.9333C5.22222 16.2222 7.95556 14.4889 11.3333 13.7333C12.4444 9.64444 14.6667 6.33333 18 3.8C21.3333 1.26667 25.1111 0 29.3333 0C34.5333 0 38.9444 1.81111 42.5667 5.43333C46.1889 9.05556 48 13.4667 48 18.6667V18.6667V18.6667C51.0667 19.0222 53.6111 20.3444 55.6333 22.6333C57.6556 24.9222 58.6667 27.6 58.6667 30.6667C58.6667 34 57.5 36.8333 55.1667 39.1667C52.8333 41.5 50 42.6667 46.6667 42.6667H14.6667V42.6667" fill="var(--fill-0, #ADC7FF)" fill-opacity="0.2"/>
</g>
</svg>
