<svg width="80" height="100" viewBox="0 0 80 100" fill="none" xmlns="http://www.w3.org/2000/svg">
<path d="M32.5 65H47.5L44.625 48.875C46.2917 48.0417 47.6042 46.8333 48.5625 45.25C49.5208 43.6667 50 41.9167 50 40C50 37.25 49.0208 34.8958 47.0625 32.9375C45.1042 30.9792 42.75 30 40 30C37.25 30 34.8958 30.9792 32.9375 32.9375C30.9792 34.8958 30 37.25 30 40C30 41.9167 30.4792 43.6667 31.4375 45.25C32.3958 46.8333 33.7083 48.0417 35.375 48.875L32.5 65ZM40 100C28.4167 97.0833 18.8542 90.4375 11.3125 80.0625C3.77083 69.6875 0 58.1667 0 45.5V15L40 0L80 15V45.5C80 58.1667 76.2292 69.6875 68.6875 80.0625C61.1458 90.4375 51.5833 97.0833 40 100Z" fill="#E0E2EC"/>
</svg>
