<svg width="54" height="54" viewBox="0 0 54 54" fill="none" xmlns="http://www.w3.org/2000/svg">
<path d="M0 53.3333V5.33333C0 3.86667 0.522222 2.61111 1.56667 1.56667C2.61111 0.522222 3.86667 0 5.33333 0H48C49.4667 0 50.7222 0.522222 51.7667 1.56667C52.8111 2.61111 53.3333 3.86667 53.3333 5.33333V37.3333C53.3333 38.8 52.8111 40.0556 51.7667 41.1C50.7222 42.1444 49.4667 42.6667 48 42.6667H10.6667L0 53.3333ZM10.6667 32H32V26.6667H10.6667V32ZM10.6667 24H42.6667V18.6667H10.6667V24ZM10.6667 16H42.6667V10.6667H10.6667V16Z" fill="white"/>
</svg>
